<svg xmlns="http://www.w3.org/2000/svg" xmlns:xlink="http://www.w3.org/1999/xlink" width="500" zoomAndPan="magnify" viewBox="0 0 375 374.999991" height="500" preserveAspectRatio="xMidYMid meet" version="1.0"><defs><g/></defs><g fill="#ffffff" fill-opacity="1"><g transform="translate(36.328127, 190.639953)"><g><path d="M 9.75 0 L 9.75 -1.015625 L 14.15625 -1.734375 L 14.15625 -37.203125 L 6.234375 -37.203125 L 2.59375 -27.703125 L 1.203125 -27.703125 L 1.203125 -38.40625 L 32.453125 -38.40625 L 32.453125 -27.703125 L 31.015625 -27.703125 L 27.40625 -37.203125 L 19.4375 -37.203125 L 19.4375 -1.734375 L 23.859375 -1.015625 L 23.859375 0 Z M 9.75 0 "/></g></g></g><g fill="#ffffff" fill-opacity="1"><g transform="translate(69.919933, 190.639953)"><g><path d="M 1.015625 -0.953125 L 4.375 -1.4375 L 4.375 -36.953125 L 1.015625 -37.4375 L 1.015625 -38.40625 L 9.171875 -38.40625 L 9.171875 -19.6875 C 10.347656 -21.40625 11.738281 -22.769531 13.34375 -23.78125 C 14.945312 -24.789062 16.675781 -25.296875 18.53125 -25.296875 C 20.832031 -25.296875 22.644531 -24.71875 23.96875 -23.5625 C 25.300781 -22.414062 25.96875 -20.707031 25.96875 -18.4375 L 25.96875 -1.4375 L 29.328125 -0.953125 L 29.328125 0 L 18.28125 0 L 18.28125 -0.953125 L 21.171875 -1.4375 L 21.171875 -18.34375 C 21.171875 -20 20.832031 -21.28125 20.15625 -22.1875 C 19.488281 -23.101562 18.453125 -23.5625 17.046875 -23.5625 C 15.566406 -23.5625 14.144531 -23.023438 12.78125 -21.953125 C 11.425781 -20.890625 10.222656 -19.570312 9.171875 -18 L 9.171875 -1.4375 L 12.046875 -0.953125 L 12.046875 0 L 1.015625 0 Z M 1.015625 -0.953125 "/></g></g></g><g fill="#ffffff" fill-opacity="1"><g transform="translate(100.10457, 190.639953)"><g><path d="M 1.296875 -0.953125 L 4.65625 -1.4375 L 4.65625 -23.421875 L 1.296875 -23.90625 L 1.296875 -24.859375 L 9.453125 -24.859375 L 9.453125 -21.171875 C 11.472656 -23.921875 13.742188 -25.296875 16.265625 -25.296875 C 17.484375 -25.296875 18.554688 -24.984375 19.484375 -24.359375 C 20.410156 -23.734375 20.875 -22.847656 20.875 -21.703125 C 20.875 -20.867188 20.601562 -20.171875 20.0625 -19.609375 C 19.519531 -19.046875 18.800781 -18.765625 17.90625 -18.765625 C 16.882812 -18.765625 16.050781 -19.164062 15.40625 -19.96875 C 15.757812 -20.414062 15.9375 -20.894531 15.9375 -21.40625 C 15.9375 -21.945312 15.75 -22.382812 15.375 -22.71875 C 15.007812 -23.0625 14.523438 -23.234375 13.921875 -23.234375 C 13.242188 -23.234375 12.550781 -22.921875 11.84375 -22.296875 C 11.144531 -21.671875 10.347656 -20.703125 9.453125 -19.390625 L 9.453125 -1.4375 L 13.296875 -0.953125 L 13.296875 0 L 1.296875 0 Z M 1.296875 -0.953125 "/></g></g></g><g fill="#ffffff" fill-opacity="1"><g transform="translate(121.315392, 190.639953)"><g><path d="M 14.5 0.484375 C 12.195312 0.484375 10.097656 -0.0507812 8.203125 -1.125 C 6.316406 -2.195312 4.820312 -3.71875 3.71875 -5.6875 C 2.613281 -7.65625 2.0625 -9.90625 2.0625 -12.4375 C 2.0625 -14.957031 2.613281 -17.191406 3.71875 -19.140625 C 4.820312 -21.097656 6.316406 -22.613281 8.203125 -23.6875 C 10.097656 -24.757812 12.195312 -25.296875 14.5 -25.296875 C 16.800781 -25.296875 18.894531 -24.757812 20.78125 -23.6875 C 22.664062 -22.613281 24.160156 -21.097656 25.265625 -19.140625 C 26.367188 -17.191406 26.921875 -14.957031 26.921875 -12.4375 C 26.921875 -9.90625 26.367188 -7.65625 25.265625 -5.6875 C 24.160156 -3.71875 22.664062 -2.195312 20.78125 -1.125 C 18.894531 -0.0507812 16.800781 0.484375 14.5 0.484375 Z M 14.5 -0.578125 C 16.863281 -0.578125 18.644531 -1.441406 19.84375 -3.171875 C 21.039062 -4.898438 21.640625 -7.1875 21.640625 -10.03125 L 21.640625 -14.828125 C 21.640625 -17.679688 21.039062 -19.960938 19.84375 -21.671875 C 18.644531 -23.378906 16.863281 -24.234375 14.5 -24.234375 C 12.125 -24.234375 10.335938 -23.378906 9.140625 -21.671875 C 7.941406 -19.960938 7.34375 -17.679688 7.34375 -14.828125 L 7.34375 -10.03125 C 7.34375 -7.1875 7.941406 -4.898438 9.140625 -3.171875 C 10.335938 -1.441406 12.125 -0.578125 14.5 -0.578125 Z M 14.5 -0.578125 "/></g></g></g><g fill="#ffffff" fill-opacity="1"><g transform="translate(150.300322, 190.639953)"><g><path d="M 11.609375 0.484375 C 9.304688 0.484375 7.488281 -0.0859375 6.15625 -1.234375 C 4.832031 -2.390625 4.171875 -4.109375 4.171875 -6.390625 L 4.171875 -23.421875 L 0.8125 -23.90625 L 0.8125 -24.859375 L 8.96875 -24.859375 L 8.96875 -6.484375 C 8.96875 -4.847656 9.300781 -3.566406 9.96875 -2.640625 C 10.644531 -1.710938 11.691406 -1.25 13.109375 -1.25 C 14.578125 -1.25 15.988281 -1.734375 17.34375 -2.703125 C 18.707031 -3.679688 19.914062 -4.894531 20.96875 -6.34375 L 20.96875 -23.421875 L 17.609375 -23.90625 L 17.609375 -24.859375 L 25.78125 -24.859375 L 25.78125 -1.4375 L 29.140625 -0.953125 L 29.140625 0 L 20.96875 0 L 20.96875 -4.609375 C 19.820312 -3.003906 18.441406 -1.753906 16.828125 -0.859375 C 15.210938 0.0351562 13.472656 0.484375 11.609375 0.484375 Z M 11.609375 0.484375 "/></g></g></g><g fill="#ffffff" fill-opacity="1"><g transform="translate(180.628925, 190.639953)"><g><path d="M 25.921875 -27.125 C 25.921875 -25.875 25.457031 -24.800781 24.53125 -23.90625 C 23.601562 -23.007812 22.128906 -22.429688 20.109375 -22.171875 C 20.941406 -20.960938 21.359375 -19.300781 21.359375 -17.1875 C 21.359375 -14.6875 20.46875 -12.71875 18.6875 -11.28125 C 16.914062 -9.84375 14.671875 -9.125 11.953125 -9.125 C 10.828125 -9.125 9.800781 -9.21875 8.875 -9.40625 C 6.832031 -9.28125 5.8125 -8.484375 5.8125 -7.015625 C 5.8125 -6.179688 6.15625 -5.570312 6.84375 -5.1875 C 7.53125 -4.800781 8.625 -4.609375 10.125 -4.609375 L 15.5 -4.609375 C 18.09375 -4.609375 20.019531 -4.078125 21.28125 -3.015625 C 22.550781 -1.960938 23.1875 -0.15625 23.1875 2.40625 C 23.1875 4.195312 22.726562 5.84375 21.8125 7.34375 C 20.90625 8.84375 19.585938 10.03125 17.859375 10.90625 C 16.128906 11.789062 14.0625 12.234375 11.65625 12.234375 C 8.039062 12.234375 5.378906 11.6875 3.671875 10.59375 C 1.960938 9.507812 1.109375 8.070312 1.109375 6.28125 C 1.109375 5.195312 1.519531 4.238281 2.34375 3.40625 C 3.175781 2.570312 4.316406 2.15625 5.765625 2.15625 C 6.046875 2.15625 6.632812 2.222656 7.53125 2.359375 C 6.539062 3.410156 6.046875 4.65625 6.046875 6.09375 C 6.046875 7.46875 6.523438 8.664062 7.484375 9.6875 C 8.441406 10.71875 10.007812 11.234375 12.1875 11.234375 C 14.082031 11.234375 15.769531 10.875 17.25 10.15625 C 18.738281 9.4375 19.882812 8.5 20.6875 7.34375 C 21.488281 6.1875 21.890625 5.003906 21.890625 3.796875 C 21.890625 2.453125 21.457031 1.484375 20.59375 0.890625 C 19.726562 0.296875 18.191406 0 15.984375 0 L 10.125 0 C 7.882812 0 6.195312 -0.4375 5.0625 -1.3125 C 3.925781 -2.195312 3.359375 -3.503906 3.359375 -5.234375 C 3.359375 -6.378906 3.6875 -7.390625 4.34375 -8.265625 C 5 -9.148438 5.835938 -9.722656 6.859375 -9.984375 C 4.078125 -11.171875 2.6875 -13.570312 2.6875 -17.1875 C 2.6875 -19.707031 3.566406 -21.6875 5.328125 -23.125 C 7.085938 -24.570312 9.296875 -25.296875 11.953125 -25.296875 C 15.304688 -25.296875 17.738281 -24.59375 19.25 -23.1875 C 20.144531 -23.34375 20.816406 -23.632812 21.265625 -24.0625 C 21.710938 -24.5 21.9375 -24.988281 21.9375 -25.53125 C 21.9375 -26.039062 21.789062 -26.429688 21.5 -26.703125 C 21.21875 -26.984375 20.882812 -27.125 20.5 -27.125 C 20.5 -27.820312 20.757812 -28.4375 21.28125 -28.96875 C 21.8125 -29.5 22.445312 -29.765625 23.1875 -29.765625 C 23.988281 -29.765625 24.644531 -29.519531 25.15625 -29.03125 C 25.664062 -28.550781 25.921875 -27.914062 25.921875 -27.125 Z M 16.84375 -18.390625 C 16.84375 -20.335938 16.4375 -21.835938 15.625 -22.890625 C 14.8125 -23.953125 13.585938 -24.484375 11.953125 -24.484375 C 8.785156 -24.484375 7.203125 -22.453125 7.203125 -18.390625 L 7.203125 -16.03125 C 7.203125 -14.144531 7.59375 -12.65625 8.375 -11.5625 C 9.15625 -10.476562 10.347656 -9.9375 11.953125 -9.9375 C 13.585938 -9.9375 14.8125 -10.476562 15.625 -11.5625 C 16.4375 -12.65625 16.84375 -14.144531 16.84375 -16.03125 Z M 16.84375 -18.390625 "/></g></g></g><g fill="#ffffff" fill-opacity="1"><g transform="translate(206.302657, 190.639953)"><g><path d="M 1.015625 -0.953125 L 4.375 -1.4375 L 4.375 -36.953125 L 1.015625 -37.4375 L 1.015625 -38.40625 L 9.171875 -38.40625 L 9.171875 -19.6875 C 10.347656 -21.40625 11.738281 -22.769531 13.34375 -23.78125 C 14.945312 -24.789062 16.675781 -25.296875 18.53125 -25.296875 C 20.832031 -25.296875 22.644531 -24.71875 23.96875 -23.5625 C 25.300781 -22.414062 25.96875 -20.707031 25.96875 -18.4375 L 25.96875 -1.4375 L 29.328125 -0.953125 L 29.328125 0 L 18.28125 0 L 18.28125 -0.953125 L 21.171875 -1.4375 L 21.171875 -18.34375 C 21.171875 -20 20.832031 -21.28125 20.15625 -22.1875 C 19.488281 -23.101562 18.453125 -23.5625 17.046875 -23.5625 C 15.566406 -23.5625 14.144531 -23.023438 12.78125 -21.953125 C 11.425781 -20.890625 10.222656 -19.570312 9.171875 -18 L 9.171875 -1.4375 L 12.046875 -0.953125 L 12.046875 0 L 1.015625 0 Z M 1.015625 -0.953125 "/></g></g></g><g fill="#ffffff" fill-opacity="1"><g transform="translate(236.487293, 190.639953)"><g/></g></g><g fill="#ffffff" fill-opacity="1"><g transform="translate(247.956493, 190.639953)"><g><path d="M 9.75 0 L 9.75 -1.015625 L 14.15625 -1.734375 L 14.15625 -37.203125 L 6.234375 -37.203125 L 2.59375 -27.703125 L 1.203125 -27.703125 L 1.203125 -38.40625 L 32.453125 -38.40625 L 32.453125 -27.703125 L 31.015625 -27.703125 L 27.40625 -37.203125 L 19.4375 -37.203125 L 19.4375 -1.734375 L 23.859375 -1.015625 L 23.859375 0 Z M 9.75 0 "/></g></g></g><g fill="#ffffff" fill-opacity="1"><g transform="translate(281.54831, 190.639953)"><g><path d="M 1.015625 -0.953125 L 4.375 -1.4375 L 4.375 -36.953125 L 1.015625 -37.4375 L 1.015625 -38.40625 L 9.171875 -38.40625 L 9.171875 -19.6875 C 10.347656 -21.40625 11.738281 -22.769531 13.34375 -23.78125 C 14.945312 -24.789062 16.675781 -25.296875 18.53125 -25.296875 C 20.832031 -25.296875 22.644531 -24.71875 23.96875 -23.5625 C 25.300781 -22.414062 25.96875 -20.707031 25.96875 -18.4375 L 25.96875 -1.4375 L 29.328125 -0.953125 L 29.328125 0 L 18.28125 0 L 18.28125 -0.953125 L 21.171875 -1.4375 L 21.171875 -18.34375 C 21.171875 -20 20.832031 -21.28125 20.15625 -22.1875 C 19.488281 -23.101562 18.453125 -23.5625 17.046875 -23.5625 C 15.566406 -23.5625 14.144531 -23.023438 12.78125 -21.953125 C 11.425781 -20.890625 10.222656 -19.570312 9.171875 -18 L 9.171875 -1.4375 L 12.046875 -0.953125 L 12.046875 0 L 1.015625 0 Z M 1.015625 -0.953125 "/></g></g></g><g fill="#ffffff" fill-opacity="1"><g transform="translate(311.732947, 190.639953)"><g><path d="M 14.734375 0.484375 C 12.367188 0.484375 10.222656 -0.0507812 8.296875 -1.125 C 6.378906 -2.195312 4.859375 -3.707031 3.734375 -5.65625 C 2.617188 -7.613281 2.0625 -9.875 2.0625 -12.4375 C 2.0625 -14.988281 2.613281 -17.234375 3.71875 -19.171875 C 4.820312 -21.109375 6.304688 -22.613281 8.171875 -23.6875 C 10.046875 -24.757812 12.140625 -25.296875 14.453125 -25.296875 C 16.460938 -25.296875 18.265625 -24.847656 19.859375 -23.953125 C 21.460938 -23.054688 22.710938 -21.816406 23.609375 -20.234375 C 24.503906 -18.648438 24.972656 -16.832031 25.015625 -14.78125 L 7.34375 -14.78125 L 7.34375 -10.03125 C 7.34375 -7.21875 7.972656 -4.9375 9.234375 -3.1875 C 10.503906 -1.445312 12.335938 -0.578125 14.734375 -0.578125 C 16.941406 -0.578125 18.894531 -1.195312 20.59375 -2.4375 C 22.289062 -3.6875 23.332031 -5.304688 23.71875 -7.296875 L 24.8125 -7.296875 C 24.363281 -4.929688 23.226562 -3.039062 21.40625 -1.625 C 19.582031 -0.21875 17.359375 0.484375 14.734375 0.484375 Z M 19.734375 -15.984375 C 19.734375 -18.765625 19.300781 -20.832031 18.4375 -22.1875 C 17.570312 -23.550781 16.226562 -24.234375 14.40625 -24.234375 C 12.257812 -24.234375 10.59375 -23.484375 9.40625 -21.984375 C 8.21875 -20.484375 7.546875 -18.484375 7.390625 -15.984375 Z M 19.734375 -15.984375 "/></g></g></g><g fill="#ffffff" fill-opacity="1"><g transform="translate(25.195315, 228.139951)"><g><path d="M 1.921875 0 L 1.921875 -1.015625 L 6.34375 -1.734375 L 6.34375 -36.671875 L 1.921875 -37.34375 L 1.921875 -38.40625 L 16.03125 -38.40625 L 16.03125 -37.34375 L 11.609375 -36.671875 L 11.609375 -1.15625 L 25.96875 -1.15625 L 29.90625 -11.71875 L 31.203125 -11.71875 L 31.203125 0 Z M 1.921875 0 "/></g></g></g><g fill="#ffffff" fill-opacity="1"><g transform="translate(57.587414, 228.139951)"><g><path d="M 14.5 0.484375 C 12.195312 0.484375 10.097656 -0.0507812 8.203125 -1.125 C 6.316406 -2.195312 4.820312 -3.71875 3.71875 -5.6875 C 2.613281 -7.65625 2.0625 -9.90625 2.0625 -12.4375 C 2.0625 -14.957031 2.613281 -17.191406 3.71875 -19.140625 C 4.820312 -21.097656 6.316406 -22.613281 8.203125 -23.6875 C 10.097656 -24.757812 12.195312 -25.296875 14.5 -25.296875 C 16.800781 -25.296875 18.894531 -24.757812 20.78125 -23.6875 C 22.664062 -22.613281 24.160156 -21.097656 25.265625 -19.140625 C 26.367188 -17.191406 26.921875 -14.957031 26.921875 -12.4375 C 26.921875 -9.90625 26.367188 -7.65625 25.265625 -5.6875 C 24.160156 -3.71875 22.664062 -2.195312 20.78125 -1.125 C 18.894531 -0.0507812 16.800781 0.484375 14.5 0.484375 Z M 14.5 -0.578125 C 16.863281 -0.578125 18.644531 -1.441406 19.84375 -3.171875 C 21.039062 -4.898438 21.640625 -7.1875 21.640625 -10.03125 L 21.640625 -14.828125 C 21.640625 -17.679688 21.039062 -19.960938 19.84375 -21.671875 C 18.644531 -23.378906 16.863281 -24.234375 14.5 -24.234375 C 12.125 -24.234375 10.335938 -23.378906 9.140625 -21.671875 C 7.941406 -19.960938 7.34375 -17.679688 7.34375 -14.828125 L 7.34375 -10.03125 C 7.34375 -7.1875 7.941406 -4.898438 9.140625 -3.171875 C 10.335938 -1.441406 12.125 -0.578125 14.5 -0.578125 Z M 14.5 -0.578125 "/></g></g></g><g fill="#ffffff" fill-opacity="1"><g transform="translate(86.572344, 228.139951)"><g><path d="M 14.5 0.484375 C 12.195312 0.484375 10.097656 -0.0507812 8.203125 -1.125 C 6.316406 -2.195312 4.820312 -3.71875 3.71875 -5.6875 C 2.613281 -7.65625 2.0625 -9.90625 2.0625 -12.4375 C 2.0625 -14.957031 2.613281 -17.191406 3.71875 -19.140625 C 4.820312 -21.097656 6.316406 -22.613281 8.203125 -23.6875 C 10.097656 -24.757812 12.195312 -25.296875 14.5 -25.296875 C 16.800781 -25.296875 18.894531 -24.757812 20.78125 -23.6875 C 22.664062 -22.613281 24.160156 -21.097656 25.265625 -19.140625 C 26.367188 -17.191406 26.921875 -14.957031 26.921875 -12.4375 C 26.921875 -9.90625 26.367188 -7.65625 25.265625 -5.6875 C 24.160156 -3.71875 22.664062 -2.195312 20.78125 -1.125 C 18.894531 -0.0507812 16.800781 0.484375 14.5 0.484375 Z M 14.5 -0.578125 C 16.863281 -0.578125 18.644531 -1.441406 19.84375 -3.171875 C 21.039062 -4.898438 21.640625 -7.1875 21.640625 -10.03125 L 21.640625 -14.828125 C 21.640625 -17.679688 21.039062 -19.960938 19.84375 -21.671875 C 18.644531 -23.378906 16.863281 -24.234375 14.5 -24.234375 C 12.125 -24.234375 10.335938 -23.378906 9.140625 -21.671875 C 7.941406 -19.960938 7.34375 -17.679688 7.34375 -14.828125 L 7.34375 -10.03125 C 7.34375 -7.1875 7.941406 -4.898438 9.140625 -3.171875 C 10.335938 -1.441406 12.125 -0.578125 14.5 -0.578125 Z M 14.5 -0.578125 "/></g></g></g><g fill="#ffffff" fill-opacity="1"><g transform="translate(115.557274, 228.139951)"><g><path d="M 0.953125 0 L 0.953125 -0.953125 L 4.3125 -1.4375 L 4.3125 -36.953125 L 0.953125 -37.4375 L 0.953125 -38.40625 L 9.125 -38.40625 L 9.125 -13.78125 L 20.109375 -22.796875 L 15.9375 -23.90625 L 15.9375 -24.859375 L 24.953125 -24.859375 L 24.953125 -23.90625 L 21.890625 -22.796875 L 13.921875 -16.265625 L 25.15625 -1.390625 L 27.75 -0.953125 L 27.75 0 L 16.515625 0 L 16.515625 -0.953125 L 19.390625 -1.4375 L 10.375 -13.34375 L 9.125 -12.28125 L 9.125 -1.4375 L 12 -0.953125 L 12 0 Z M 0.953125 0 "/></g></g></g><g fill="#ffffff" fill-opacity="1"><g transform="translate(142.670661, 228.139951)"><g><path d="M 6.4375 -30.4375 C 5.539062 -30.4375 4.769531 -30.742188 4.125 -31.359375 C 3.488281 -31.984375 3.171875 -32.742188 3.171875 -33.640625 C 3.171875 -34.535156 3.484375 -35.285156 4.109375 -35.890625 C 4.734375 -36.503906 5.507812 -36.8125 6.4375 -36.8125 C 7.300781 -36.8125 8.035156 -36.503906 8.640625 -35.890625 C 9.242188 -35.285156 9.546875 -34.535156 9.546875 -33.640625 C 9.546875 -32.742188 9.242188 -31.984375 8.640625 -31.359375 C 8.035156 -30.742188 7.300781 -30.4375 6.4375 -30.4375 Z M 1.34375 0 L 1.34375 -0.953125 L 4.703125 -1.4375 L 4.703125 -23.375 L 1.34375 -23.859375 L 1.34375 -24.8125 L 9.5 -24.8125 L 9.5 -1.4375 L 12.859375 -0.953125 L 12.859375 0 Z M 1.34375 0 "/></g></g></g><g fill="#ffffff" fill-opacity="1"><g transform="translate(156.539274, 228.139951)"><g><path d="M 1.296875 -0.953125 L 4.65625 -1.4375 L 4.65625 -23.421875 L 1.296875 -23.90625 L 1.296875 -24.859375 L 9.453125 -24.859375 L 9.453125 -19.6875 C 10.640625 -21.40625 12.03125 -22.769531 13.625 -23.78125 C 15.226562 -24.789062 16.957031 -25.296875 18.8125 -25.296875 C 21.113281 -25.296875 22.925781 -24.71875 24.25 -23.5625 C 25.582031 -22.414062 26.25 -20.707031 26.25 -18.4375 L 26.25 -1.4375 L 29.609375 -0.953125 L 29.609375 0 L 18.578125 0 L 18.578125 -0.953125 L 21.453125 -1.4375 L 21.453125 -18.34375 C 21.453125 -20 21.113281 -21.28125 20.4375 -22.1875 C 19.769531 -23.101562 18.734375 -23.5625 17.328125 -23.5625 C 15.859375 -23.5625 14.441406 -23.023438 13.078125 -21.953125 C 11.722656 -20.890625 10.515625 -19.570312 9.453125 -18 L 9.453125 -1.4375 L 12.34375 -0.953125 L 12.34375 0 L 1.296875 0 Z M 1.296875 -0.953125 "/></g></g></g><g fill="#ffffff" fill-opacity="1"><g transform="translate(187.011844, 228.139951)"><g><path d="M 25.921875 -27.125 C 25.921875 -25.875 25.457031 -24.800781 24.53125 -23.90625 C 23.601562 -23.007812 22.128906 -22.429688 20.109375 -22.171875 C 20.941406 -20.960938 21.359375 -19.300781 21.359375 -17.1875 C 21.359375 -14.6875 20.46875 -12.71875 18.6875 -11.28125 C 16.914062 -9.84375 14.671875 -9.125 11.953125 -9.125 C 10.828125 -9.125 9.800781 -9.21875 8.875 -9.40625 C 6.832031 -9.28125 5.8125 -8.484375 5.8125 -7.015625 C 5.8125 -6.179688 6.15625 -5.570312 6.84375 -5.1875 C 7.53125 -4.800781 8.625 -4.609375 10.125 -4.609375 L 15.5 -4.609375 C 18.09375 -4.609375 20.019531 -4.078125 21.28125 -3.015625 C 22.550781 -1.960938 23.1875 -0.15625 23.1875 2.40625 C 23.1875 4.195312 22.726562 5.84375 21.8125 7.34375 C 20.90625 8.84375 19.585938 10.03125 17.859375 10.90625 C 16.128906 11.789062 14.0625 12.234375 11.65625 12.234375 C 8.039062 12.234375 5.378906 11.6875 3.671875 10.59375 C 1.960938 9.507812 1.109375 8.070312 1.109375 6.28125 C 1.109375 5.195312 1.519531 4.238281 2.34375 3.40625 C 3.175781 2.570312 4.316406 2.15625 5.765625 2.15625 C 6.046875 2.15625 6.632812 2.222656 7.53125 2.359375 C 6.539062 3.410156 6.046875 4.65625 6.046875 6.09375 C 6.046875 7.46875 6.523438 8.664062 7.484375 9.6875 C 8.441406 10.71875 10.007812 11.234375 12.1875 11.234375 C 14.082031 11.234375 15.769531 10.875 17.25 10.15625 C 18.738281 9.4375 19.882812 8.5 20.6875 7.34375 C 21.488281 6.1875 21.890625 5.003906 21.890625 3.796875 C 21.890625 2.453125 21.457031 1.484375 20.59375 0.890625 C 19.726562 0.296875 18.191406 0 15.984375 0 L 10.125 0 C 7.882812 0 6.195312 -0.4375 5.0625 -1.3125 C 3.925781 -2.195312 3.359375 -3.503906 3.359375 -5.234375 C 3.359375 -6.378906 3.6875 -7.390625 4.34375 -8.265625 C 5 -9.148438 5.835938 -9.722656 6.859375 -9.984375 C 4.078125 -11.171875 2.6875 -13.570312 2.6875 -17.1875 C 2.6875 -19.707031 3.566406 -21.6875 5.328125 -23.125 C 7.085938 -24.570312 9.296875 -25.296875 11.953125 -25.296875 C 15.304688 -25.296875 17.738281 -24.59375 19.25 -23.1875 C 20.144531 -23.34375 20.816406 -23.632812 21.265625 -24.0625 C 21.710938 -24.5 21.9375 -24.988281 21.9375 -25.53125 C 21.9375 -26.039062 21.789062 -26.429688 21.5 -26.703125 C 21.21875 -26.984375 20.882812 -27.125 20.5 -27.125 C 20.5 -27.820312 20.757812 -28.4375 21.28125 -28.96875 C 21.8125 -29.5 22.445312 -29.765625 23.1875 -29.765625 C 23.988281 -29.765625 24.644531 -29.519531 25.15625 -29.03125 C 25.664062 -28.550781 25.921875 -27.914062 25.921875 -27.125 Z M 16.84375 -18.390625 C 16.84375 -20.335938 16.4375 -21.835938 15.625 -22.890625 C 14.8125 -23.953125 13.585938 -24.484375 11.953125 -24.484375 C 8.785156 -24.484375 7.203125 -22.453125 7.203125 -18.390625 L 7.203125 -16.03125 C 7.203125 -14.144531 7.59375 -12.65625 8.375 -11.5625 C 9.15625 -10.476562 10.347656 -9.9375 11.953125 -9.9375 C 13.585938 -9.9375 14.8125 -10.476562 15.625 -11.5625 C 16.4375 -12.65625 16.84375 -14.144531 16.84375 -16.03125 Z M 16.84375 -18.390625 "/></g></g></g><g fill="#ffffff" fill-opacity="1"><g transform="translate(212.685576, 228.139951)"><g/></g></g><g fill="#ffffff" fill-opacity="1"><g transform="translate(224.154775, 228.139951)"><g><path d="M 19.96875 0.953125 C 16.476562 0.953125 13.421875 0.109375 10.796875 -1.578125 C 8.171875 -3.273438 6.144531 -5.644531 4.71875 -8.6875 C 3.300781 -11.726562 2.59375 -15.234375 2.59375 -19.203125 C 2.59375 -23.171875 3.34375 -26.671875 4.84375 -29.703125 C 6.351562 -32.742188 8.457031 -35.113281 11.15625 -36.8125 C 13.863281 -38.507812 16.960938 -39.359375 20.453125 -39.359375 C 23.742188 -39.359375 26.523438 -38.523438 28.796875 -36.859375 L 31.734375 -39.359375 L 32.734375 -39.359375 L 32.734375 -27.453125 L 31.734375 -27.453125 L 28.5625 -35.375 C 26.257812 -37.289062 23.554688 -38.25 20.453125 -38.25 C 18.210938 -38.25 16.203125 -37.671875 14.421875 -36.515625 C 12.648438 -35.367188 11.257812 -33.691406 10.25 -31.484375 C 9.238281 -29.273438 8.734375 -26.648438 8.734375 -23.609375 L 8.734375 -14.828125 C 8.734375 -11.785156 9.203125 -9.160156 10.140625 -6.953125 C 11.085938 -4.742188 12.398438 -3.054688 14.078125 -1.890625 C 15.765625 -0.722656 17.726562 -0.140625 19.96875 -0.140625 C 22.71875 -0.140625 24.851562 -0.988281 26.375 -2.6875 C 27.894531 -4.382812 28.65625 -6.65625 28.65625 -9.5 L 28.65625 -13.96875 L 24.1875 -14.640625 L 24.1875 -15.703125 L 38.546875 -15.703125 L 38.546875 -14.640625 L 34.078125 -13.96875 L 34.078125 -9.5 C 34.078125 -7.675781 33.582031 -5.972656 32.59375 -4.390625 C 31.601562 -2.804688 30.050781 -1.519531 27.9375 -0.53125 C 25.820312 0.457031 23.164062 0.953125 19.96875 0.953125 Z M 19.96875 0.953125 "/></g></g></g><g fill="#ffffff" fill-opacity="1"><g transform="translate(263.169261, 228.139951)"><g><path d="M 0.953125 0 L 0.953125 -0.953125 L 4.5625 -1.4375 L 4.5625 -36.953125 L 0.953125 -37.4375 L 0.953125 -38.40625 L 9.359375 -38.40625 L 9.359375 -1.4375 L 12.71875 -0.953125 L 12.71875 0 Z M 0.953125 0 "/></g></g></g><g fill="#ffffff" fill-opacity="1"><g transform="translate(276.893907, 228.139951)"><g><path d="M 9.21875 0.484375 C 7.164062 0.484375 5.484375 -0.0507812 4.171875 -1.125 C 2.859375 -2.195312 2.203125 -3.789062 2.203125 -5.90625 C 2.203125 -8.914062 3.46875 -11.050781 6 -12.3125 C 8.53125 -13.570312 11.457031 -14.203125 14.78125 -14.203125 L 18 -14.203125 L 18 -17.90625 C 18 -19.570312 17.8125 -20.859375 17.4375 -21.765625 C 17.070312 -22.679688 16.503906 -23.320312 15.734375 -23.6875 C 14.972656 -24.050781 13.9375 -24.234375 12.625 -24.234375 C 11.125 -24.234375 10.003906 -23.9375 9.265625 -23.34375 C 8.523438 -22.757812 8.15625 -21.96875 8.15625 -20.96875 C 8.15625 -20.039062 8.601562 -19.4375 9.5 -19.15625 C 9.5 -18.351562 9.195312 -17.644531 8.59375 -17.03125 C 7.988281 -16.425781 7.269531 -16.125 6.4375 -16.125 C 5.539062 -16.125 4.816406 -16.367188 4.265625 -16.859375 C 3.722656 -17.359375 3.453125 -18.125 3.453125 -19.15625 C 3.453125 -21.007812 4.378906 -22.492188 6.234375 -23.609375 C 8.097656 -24.734375 10.421875 -25.296875 13.203125 -25.296875 C 19.597656 -25.296875 22.796875 -22.507812 22.796875 -16.9375 L 22.796875 -3.21875 C 22.796875 -2.507812 22.945312 -1.972656 23.25 -1.609375 C 23.5625 -1.242188 24.003906 -1.0625 24.578125 -1.0625 C 25.117188 -1.0625 25.550781 -1.242188 25.875 -1.609375 C 26.195312 -1.972656 26.359375 -2.476562 26.359375 -3.125 L 27.359375 -3.125 C 27.359375 -2 27 -1.113281 26.28125 -0.46875 C 25.5625 0.164062 24.5625 0.484375 23.28125 0.484375 C 21.8125 0.484375 20.570312 0.0625 19.5625 -0.78125 C 18.550781 -1.632812 18.03125 -2.957031 18 -4.75 C 17.226562 -3.113281 16.050781 -1.832031 14.46875 -0.90625 C 12.882812 0.0195312 11.132812 0.484375 9.21875 0.484375 Z M 11.859375 -1.625 C 12.722656 -1.625 13.609375 -1.878906 14.515625 -2.390625 C 15.429688 -2.910156 16.207031 -3.65625 16.84375 -4.625 C 17.488281 -5.601562 17.875 -6.78125 18 -8.15625 L 18 -13.15625 L 14.78125 -13.15625 C 12.15625 -13.15625 10.191406 -12.566406 8.890625 -11.390625 C 7.597656 -10.222656 6.953125 -8.585938 6.953125 -6.484375 C 6.953125 -4.722656 7.367188 -3.472656 8.203125 -2.734375 C 9.035156 -1.992188 10.253906 -1.625 11.859375 -1.625 Z M 11.859375 -1.625 "/></g></g></g><g fill="#ffffff" fill-opacity="1"><g transform="translate(304.103264, 228.139951)"><g><path d="M 11.515625 0.484375 C 8.890625 0.484375 6.695312 -0.0703125 4.9375 -1.1875 C 3.175781 -2.3125 2.296875 -3.769531 2.296875 -5.5625 C 2.296875 -6.488281 2.546875 -7.21875 3.046875 -7.75 C 3.546875 -8.28125 4.210938 -8.546875 5.046875 -8.546875 C 5.679688 -8.546875 6.222656 -8.382812 6.671875 -8.0625 C 7.117188 -7.738281 7.4375 -7.289062 7.625 -6.71875 C 6.925781 -5.945312 6.578125 -5.128906 6.578125 -4.265625 C 6.578125 -3.273438 7.023438 -2.410156 7.921875 -1.671875 C 8.816406 -0.941406 10.015625 -0.578125 11.515625 -0.578125 C 13.535156 -0.578125 15.1875 -1.03125 16.46875 -1.9375 C 17.75 -2.851562 18.390625 -4.078125 18.390625 -5.609375 C 18.390625 -6.503906 18.113281 -7.175781 17.5625 -7.625 C 17.019531 -8.070312 15.96875 -8.585938 14.40625 -9.171875 L 7.15625 -11.8125 C 4.300781 -12.832031 2.875 -14.734375 2.875 -17.515625 C 2.875 -19.785156 3.65625 -21.648438 5.21875 -23.109375 C 6.789062 -24.566406 8.957031 -25.296875 11.71875 -25.296875 C 13.988281 -25.296875 15.929688 -24.773438 17.546875 -23.734375 C 19.160156 -22.691406 19.96875 -21.210938 19.96875 -19.296875 C 19.96875 -18.523438 19.757812 -17.90625 19.34375 -17.4375 C 18.925781 -16.976562 18.382812 -16.75 17.71875 -16.75 C 17.039062 -16.75 16.484375 -16.929688 16.046875 -17.296875 C 15.617188 -17.671875 15.40625 -18.175781 15.40625 -18.8125 C 15.820312 -19.132812 16.109375 -19.476562 16.265625 -19.84375 C 16.429688 -20.21875 16.515625 -20.660156 16.515625 -21.171875 C 16.515625 -22.066406 16.117188 -22.800781 15.328125 -23.375 C 14.546875 -23.945312 13.34375 -24.234375 11.71875 -24.234375 C 10.300781 -24.234375 9.085938 -24.015625 8.078125 -23.578125 C 7.078125 -23.148438 6.320312 -22.582031 5.8125 -21.875 C 5.300781 -21.175781 5.046875 -20.460938 5.046875 -19.734375 C 5.046875 -18.960938 5.320312 -18.351562 5.875 -17.90625 C 6.4375 -17.457031 7.46875 -16.960938 8.96875 -16.421875 L 15.703125 -14.015625 C 17.265625 -13.441406 18.445312 -12.640625 19.25 -11.609375 C 20.050781 -10.585938 20.453125 -9.257812 20.453125 -7.625 C 20.453125 -5.289062 19.710938 -3.351562 18.234375 -1.8125 C 16.765625 -0.28125 14.523438 0.484375 11.515625 0.484375 Z M 11.515625 0.484375 "/></g></g></g><g fill="#ffffff" fill-opacity="1"><g transform="translate(326.945692, 228.139951)"><g><path d="M 11.515625 0.484375 C 8.890625 0.484375 6.695312 -0.0703125 4.9375 -1.1875 C 3.175781 -2.3125 2.296875 -3.769531 2.296875 -5.5625 C 2.296875 -6.488281 2.546875 -7.21875 3.046875 -7.75 C 3.546875 -8.28125 4.210938 -8.546875 5.046875 -8.546875 C 5.679688 -8.546875 6.222656 -8.382812 6.671875 -8.0625 C 7.117188 -7.738281 7.4375 -7.289062 7.625 -6.71875 C 6.925781 -5.945312 6.578125 -5.128906 6.578125 -4.265625 C 6.578125 -3.273438 7.023438 -2.410156 7.921875 -1.671875 C 8.816406 -0.941406 10.015625 -0.578125 11.515625 -0.578125 C 13.535156 -0.578125 15.1875 -1.03125 16.46875 -1.9375 C 17.75 -2.851562 18.390625 -4.078125 18.390625 -5.609375 C 18.390625 -6.503906 18.113281 -7.175781 17.5625 -7.625 C 17.019531 -8.070312 15.96875 -8.585938 14.40625 -9.171875 L 7.15625 -11.8125 C 4.300781 -12.832031 2.875 -14.734375 2.875 -17.515625 C 2.875 -19.785156 3.65625 -21.648438 5.21875 -23.109375 C 6.789062 -24.566406 8.957031 -25.296875 11.71875 -25.296875 C 13.988281 -25.296875 15.929688 -24.773438 17.546875 -23.734375 C 19.160156 -22.691406 19.96875 -21.210938 19.96875 -19.296875 C 19.96875 -18.523438 19.757812 -17.90625 19.34375 -17.4375 C 18.925781 -16.976562 18.382812 -16.75 17.71875 -16.75 C 17.039062 -16.75 16.484375 -16.929688 16.046875 -17.296875 C 15.617188 -17.671875 15.40625 -18.175781 15.40625 -18.8125 C 15.820312 -19.132812 16.109375 -19.476562 16.265625 -19.84375 C 16.429688 -20.21875 16.515625 -20.660156 16.515625 -21.171875 C 16.515625 -22.066406 16.117188 -22.800781 15.328125 -23.375 C 14.546875 -23.945312 13.34375 -24.234375 11.71875 -24.234375 C 10.300781 -24.234375 9.085938 -24.015625 8.078125 -23.578125 C 7.078125 -23.148438 6.320312 -22.582031 5.8125 -21.875 C 5.300781 -21.175781 5.046875 -20.460938 5.046875 -19.734375 C 5.046875 -18.960938 5.320312 -18.351562 5.875 -17.90625 C 6.4375 -17.457031 7.46875 -16.960938 8.96875 -16.421875 L 15.703125 -14.015625 C 17.265625 -13.441406 18.445312 -12.640625 19.25 -11.609375 C 20.050781 -10.585938 20.453125 -9.257812 20.453125 -7.625 C 20.453125 -5.289062 19.710938 -3.351562 18.234375 -1.8125 C 16.765625 -0.28125 14.523438 0.484375 11.515625 0.484375 Z M 11.515625 0.484375 "/></g></g></g></svg>